<?xml version="1.0" standalone="no"?>
<!DOCTYPE svg PUBLIC "-//W3C//DTD SVG 20010904//EN"
 "http://www.w3.org/TR/2001/REC-SVG-20010904/DTD/svg10.dtd">
<svg version="1.0" xmlns="http://www.w3.org/2000/svg"
 width="700.000000pt" height="700.000000pt" viewBox="0 0 700.000000 700.000000"
 preserveAspectRatio="xMidYMid meet">
<metadata>
Created by potrace 1.11, written by Peter Selinger 2001-2013
</metadata>
<g transform="translate(0.000000,700.000000) scale(0.100000,-0.100000)"
fill="#000000" stroke="none">
<path d="M3190 6548 c-162 -19 -380 -58 -460 -83 -25 -7 -65 -19 -90 -26 -61
-16 -116 -34 -170 -54 -25 -9 -70 -26 -100 -38 -57 -21 -333 -153 -385 -184
-264 -157 -457 -305 -650 -498 -193 -193 -341 -386 -498 -650 -31 -52 -163
-328 -184 -385 -12 -30 -29 -75 -38 -100 -20 -54 -38 -109 -54 -170 -7 -25
-19 -65 -26 -90 -26 -86 -64 -296 -84 -476 -14 -117 -14 -480 -1 -598 25 -219
76 -477 111 -561 4 -11 15 -40 23 -65 43 -130 113 -307 128 -325 4 -5 8 -17 8
-27 0 -10 5 -18 10 -18 6 0 10 -4 10 -10 0 -14 45 -107 85 -175 20 -33 38 -68
42 -77 3 -10 9 -18 14 -18 5 0 9 -4 9 -10 0 -8 34 -65 57 -95 5 -5 14 -22 22
-37 8 -16 18 -28 23 -28 4 0 8 -4 8 -10 0 -5 6 -18 14 -27 8 -10 38 -49 67
-88 28 -38 59 -77 68 -85 9 -8 34 -37 56 -64 50 -63 194 -208 270 -271 33 -27
67 -57 75 -66 8 -8 33 -28 55 -44 22 -17 42 -33 45 -36 11 -13 201 -139 209
-139 5 0 11 -3 13 -8 8 -20 310 -183 418 -226 25 -10 59 -24 75 -31 17 -7 59
-23 95 -35 36 -13 72 -26 80 -30 22 -12 243 -70 325 -86 39 -8 93 -19 120 -24
120 -26 302 -40 519 -40 274 0 348 7 626 62 131 26 395 103 485 143 17 7 55
23 85 35 65 26 310 147 327 162 22 18 125 78 134 78 5 0 9 4 9 9 0 5 9 12 19
16 16 5 64 38 108 75 7 5 15 10 18 10 4 0 12 6 19 12 8 7 28 24 45 38 65 52
77 62 120 98 88 73 315 306 371 381 14 18 34 43 45 56 43 50 55 65 55 71 0 2
5 10 10 17 37 44 70 92 75 108 4 10 11 19 16 19 5 0 9 4 9 9 0 5 18 38 40 72
22 35 51 84 63 109 13 25 33 63 45 85 37 71 112 235 112 245 0 6 4 18 9 28 15
30 28 65 56 147 15 44 31 89 36 100 12 28 45 158 59 230 6 33 16 79 21 102 30
136 42 290 42 538 0 306 -10 400 -75 690 -23 106 -74 288 -93 330 -7 17 -18
46 -25 65 -7 19 -18 49 -25 65 -8 17 -22 53 -33 80 -24 62 -146 298 -173 336
-10 15 -19 30 -19 34 0 7 -149 227 -160 235 -3 3 -26 32 -51 65 -24 33 -64 83
-88 110 -73 82 -304 308 -346 340 -22 16 -47 38 -56 47 -9 10 -21 18 -28 18
-6 0 -11 4 -11 9 0 4 -33 30 -72 57 -40 26 -75 51 -78 54 -7 8 -106 73 -150
98 -127 72 -163 91 -230 124 -187 89 -312 138 -490 188 -25 7 -56 16 -70 21
-85 28 -273 62 -500 89 -101 12 -493 11 -600 -2z m-1620 -1762 c77 -28 277
-104 305 -116 11 -5 101 -39 200 -75 328 -121 420 -156 440 -164 11 -5 47 -19
80 -31 33 -12 69 -26 80 -31 20 -8 166 -63 375 -139 63 -24 129 -48 145 -55
17 -7 46 -18 65 -25 19 -7 44 -16 55 -20 68 -29 207 -80 215 -80 7 0 9 -81 8
-241 l-3 -241 -105 -39 c-58 -22 -115 -44 -127 -49 -13 -6 -33 -14 -45 -19
-13 -5 -52 -20 -88 -34 -169 -67 -509 -197 -514 -197 -4 0 -25 -9 -49 -19 -23
-10 -109 -45 -192 -76 -142 -53 -163 -61 -217 -84 -13 -6 -66 -26 -118 -46
-52 -20 -104 -40 -115 -45 -11 -5 -99 -38 -195 -75 -178 -67 -211 -80 -242
-96 -10 -5 -20 -9 -23 -9 -3 0 -4 111 -3 246 l3 246 60 23 c33 13 141 54 240
90 99 36 189 70 200 75 11 5 65 25 120 45 55 20 134 49 175 65 41 16 156 59
255 95 99 37 225 84 279 104 l99 38 -34 12 c-150 56 -244 90 -554 199 -77 28
-192 69 -255 92 -63 22 -134 48 -157 56 -23 8 -79 28 -125 45 -46 16 -126 45
-178 63 -52 19 -103 37 -112 41 -16 7 -18 28 -18 251 0 134 1 244 3 244 1 0
31 -11 67 -24z m3950 -2396 l0 -200 -990 0 -990 0 0 200 0 200 990 0 990 0 0
-200z"/>
</g>
</svg>
